<svg xmlns="http://www.w3.org/2000/svg" viewBox="0 0 193.88 56.88"><defs><style>.cls-1{fill:#3f3a36;}</style></defs><g id="Layer_2" data-name="Layer 2"><g id="Layer_1-2" data-name="Layer 1"><path class="cls-1" d="M28.44,56.88A28.44,28.44,0,1,1,56.88,28.44,28.47,28.47,0,0,1,28.44,56.88ZM28.44,2A26.44,26.44,0,1,0,54.88,28.44,26.47,26.47,0,0,0,28.44,2Z"/><path class="cls-1" d="M29.79,25.67h-3.1v-6s1.61,0,3.12,0a2.69,2.69,0,0,1,2.68,2.69V23A2.7,2.7,0,0,1,29.79,25.67Z"/><path class="cls-1" d="M33.41,33.46v.71a3.14,3.14,0,0,1-3.13,3.15H26.67V30.26s1.87,0,3.63,0A3.13,3.13,0,0,1,33.41,33.46Z"/><path class="cls-1" d="M28.44,7.53A20.91,20.91,0,1,0,49.35,28.44,20.91,20.91,0,0,0,28.44,7.53Zm4.82,34.06v3.59H28.79V41.86H26.67v3.32H22.1V41.92H16.32V37.35l3.36,0L19.61,19.6H16.45V15.1H22V11.77h4.61l0,3.36,2.09,0V11.74l4.64,0s-.07,2.09-.07,3.67a6.75,6.75,0,0,1,6.29,6.55,6.06,6.06,0,0,1-3.7,5.75s4.34,1,4.71,6.35C40.56,41,33.26,41.59,33.26,41.59Z"/><path class="cls-1" d="M86.5,10.25a4.26,4.26,0,0,1,.77,2.55,3.72,3.72,0,0,1-.77,2.45,3.87,3.87,0,0,1-1.27.95,3.7,3.7,0,0,1,1.92,1.47,4.48,4.48,0,0,1,.65,2.45,4.93,4.93,0,0,1-.74,2.66,4.64,4.64,0,0,1-1.18,1.31,4.53,4.53,0,0,1-1.89.84,11.58,11.58,0,0,1-2.35.22H74.12V8.47h8.06C84.22,8.5,85.66,9.1,86.5,10.25Zm-9,1.12v3.68h4a3.43,3.43,0,0,0,1.77-.41,1.59,1.59,0,0,0,.67-1.47,1.5,1.5,0,0,0-.89-1.54,6.44,6.44,0,0,0-2-.26Zm0,6.44v4.45h4a3.9,3.9,0,0,0,1.69-.3,2.09,2.09,0,0,0,1.09-2.08,1.79,1.79,0,0,0-1.06-1.79,4.31,4.31,0,0,0-1.67-.28Z"/><path class="cls-1" d="M98.62,25.15H95.15V8.47h3.47Z"/><path class="cls-1" d="M118.63,8.47v3h-5V25.15h-3.51V11.43h-5v-3Z"/><path class="cls-1" d="M126.9,10.22A6.83,6.83,0,0,1,132,8.16q4.16,0,6.09,2.76A6,6,0,0,1,139.26,14h-3.49a4.7,4.7,0,0,0-.85-1.81,3.45,3.45,0,0,0-2.76-1.09,3.4,3.4,0,0,0-2.94,1.54A7.46,7.46,0,0,0,128.14,17a6.54,6.54,0,0,0,1.14,4.2,3.57,3.57,0,0,0,2.88,1.4,3.28,3.28,0,0,0,2.74-1.2,5.43,5.43,0,0,0,.86-1.94h3.46a7.46,7.46,0,0,1-2.29,4.44,6.64,6.64,0,0,1-4.71,1.71,7.08,7.08,0,0,1-5.6-2.31,9.31,9.31,0,0,1-2-6.36C124.58,14,125.35,11.79,126.9,10.22Z"/><path class="cls-1" d="M159.52,23.67a8.63,8.63,0,0,1-10.93,0q-2.53-2.39-2.54-6.88c0-3,.85-5.35,2.54-6.88a8.63,8.63,0,0,1,10.93,0c1.68,1.53,2.53,3.83,2.53,6.88S161.2,22.08,159.52,23.67Zm-2.18-2.53a6.85,6.85,0,0,0,1.22-4.35,6.84,6.84,0,0,0-1.22-4.34,4,4,0,0,0-3.28-1.53,4,4,0,0,0-3.31,1.53,6.74,6.74,0,0,0-1.23,4.34,6.79,6.79,0,0,0,1.23,4.35,4,4,0,0,0,3.31,1.53A4,4,0,0,0,157.34,21.14Z"/><path class="cls-1" d="M172.52,25.15h-3.46V8.47h3.46Z"/><path class="cls-1" d="M180.36,8.47H184l6.62,11.63V8.47h3.25V25.15H190.4l-6.79-11.83V25.15h-3.25Z"/><path class="cls-1" d="M86,48.49H82.53V31.81H86Z"/><path class="cls-1" d="M91.51,31.81h3.65l6.62,11.63V31.81H105V48.49h-3.48L94.76,36.65V48.49H91.51Z"/><path class="cls-1" d="M113.13,43.34a3.39,3.39,0,0,0,.64,1.71,3.73,3.73,0,0,0,3,1,6.37,6.37,0,0,0,2-.27,1.94,1.94,0,0,0,1.49-1.94,1.42,1.42,0,0,0-.73-1.28,8.12,8.12,0,0,0-2.31-.78l-1.81-.4a11.36,11.36,0,0,1-3.66-1.27,4.08,4.08,0,0,1-1.68-3.61,4.8,4.8,0,0,1,1.65-3.73,7,7,0,0,1,4.84-1.48,7.47,7.47,0,0,1,4.56,1.4,5,5,0,0,1,2,4.05h-3.35a2.38,2.38,0,0,0-1.34-2.13,4.61,4.61,0,0,0-2.08-.42,4,4,0,0,0-2.2.54,1.72,1.72,0,0,0-.83,1.52,1.43,1.43,0,0,0,.81,1.33,9.75,9.75,0,0,0,2.22.69l2.93.69a7.49,7.49,0,0,1,2.88,1.21,4.08,4.08,0,0,1,1.5,3.41,4.8,4.8,0,0,1-1.77,3.8,7.49,7.49,0,0,1-5,1.51,8.19,8.19,0,0,1-5.19-1.49,4.92,4.92,0,0,1-1.88-4.09Z"/><path class="cls-1" d="M131.58,48.49h-3.47V31.81h3.47Z"/><path class="cls-1" d="M146.93,32.17a5.48,5.48,0,0,1,2.84,2.11A7.42,7.42,0,0,1,151,37a12.93,12.93,0,0,1,.32,2.76,11.1,11.1,0,0,1-1.34,5.64,6,6,0,0,1-5.59,3.11h-7.2V31.81h7.2A8.52,8.52,0,0,1,146.93,32.17Zm-6.39,2.53V45.59h3.22a3.48,3.48,0,0,0,3.44-2.43,8.46,8.46,0,0,0,.54-3.18,7.84,7.84,0,0,0-.8-3.91c-.54-.91-1.6-1.37-3.18-1.37Z"/><path class="cls-1" d="M168.55,34.76h-8.83V38.3h8.1v2.9h-8.1v4.29H169v3H156.31V31.81h12.24Z"/><path class="cls-1" d="M184.68,32.24a4.15,4.15,0,0,1,1.56,1.16,5.27,5.27,0,0,1,.84,1.41,4.75,4.75,0,0,1,.31,1.75,5,5,0,0,1-.6,2.34,3.38,3.38,0,0,1-2,1.62,3.1,3.1,0,0,1,1.63,1.32,5.5,5.5,0,0,1,.48,2.61v1.12a8.62,8.62,0,0,0,.09,1.55,1.41,1.41,0,0,0,.65,1v.42h-3.85c-.11-.37-.18-.67-.23-.9a7.46,7.46,0,0,1-.14-1.43l0-1.55a3.08,3.08,0,0,0-.55-2.13,2.76,2.76,0,0,0-2-.53h-3.41v6.54h-3.4V31.81h8A7.16,7.16,0,0,1,184.68,32.24Zm-7.21,2.46v4.48h3.75a4,4,0,0,0,1.68-.27,1.87,1.87,0,0,0,1-1.88,2.09,2.09,0,0,0-1-2,3.38,3.38,0,0,0-1.61-.3Z"/></g></g></svg>